<?xml version="1.0" encoding="utf-8"?>
<svg viewBox="0 0 500 500" xmlns="http://www.w3.org/2000/svg">
  <defs>
    <linearGradient gradientUnits="userSpaceOnUse" x1="186.501" y1="129.663" x2="186.501" y2="373.002" id="gradient-0" gradientTransform="matrix(1.203603, 1.150532, -1.370314, 1.433525, 376.966203, -311.744581)">
      <stop offset="0" style="stop-color: rgb(46, 191, 145);"/>
      <stop offset="1" style="stop-color: rgb(131, 96, 195);"/>
    </linearGradient>
    <linearGradient gradientUnits="userSpaceOnUse" x1="12" y1="3" x2="12" y2="21" id="gradient-2" gradientTransform="matrix(1.322576, 0, 0, 1.322576, -3.870917, -0.967729)">
      <stop offset="0" style="stop-color: rgb(255, 249, 250);"/>
      <stop offset="1" style="stop-color: rgb(238, 156, 167);"/>
    </linearGradient>
  </defs>
  <rect x="47.414" y="47.414" width="405.171" height="405.171" style="fill: url('#gradient-0');" rx="111.716" ry="111.716"/>
  <g transform="matrix(11.572447, 0, 0, 11.572447, 111.130638, 111.130638)" style="">
    <path d="M12 3c-4.97 0-9 4.03-9 9s4.03 9 9 9c.83 0 1.5-.67 1.5-1.5 0-.39-.15-.74-.39-1.01-.23-.26-.38-.61-.38-.99 0-.83.67-1.5 1.5-1.5H16c2.76 0 5-2.24 5-5 0-4.42-4.03-8-9-8zm-5.5 9c-.83 0-1.5-.67-1.5-1.5S5.67 9 6.5 9 8 9.67 8 10.5 7.33 12 6.5 12zm3-4C8.67 8 8 7.33 8 6.5S8.67 5 9.5 5s1.5.67 1.5 1.5S10.33 8 9.5 8zm5 0c-.83 0-1.5-.67-1.5-1.5S13.67 5 14.5 5s1.5.67 1.5 1.5S15.33 8 14.5 8zm3 4c-.83 0-1.5-.67-1.5-1.5S16.67 9 17.5 9s1.5.67 1.5 1.5-.67 1.5-1.5 1.5z" style="fill: url('#gradient-2');"/>
  </g>
</svg>